# xmcd
#
# Track frame offsets:
#	182
#	63460
#	120890
#	159300
#	204505
#	234367
#	236060
#
# Disc length: 3163 seconds
#
# Revision: 0
# Processed by: cddbd v1.5.1PL2 Copyright (c) Steve Scherf et al.
# Submitted via: dBpowerAMP V4.0
#
DISCID=500c5907
DTITLE=Tanya Tucker - Fire To Fire (The Radio Special)
DYEAR=1995
DGENRE=Country
TTITLE0=An Amazing Career
TTITLE1=The Very "Original" Little Richard
TTITLE2=A Duet With Willie
TTITLE3=Fans Old And New
TTITLE4=The Great Taste Of Salsa
TTITLE5=Promo 1
TTITLE6=Promo 2
EXTD=
EXTT0=
EXTT1=
EXTT2=
EXTT3=
EXTT4=
EXTT5=
EXTT6=
PLAYORDER=
